<svg width="44" height="39" viewBox="0 0 44 39" fill="none" xmlns="http://www.w3.org/2000/svg">
<g clip-path="url(#clip0_3_34)">
<path d="M9.16667 19.5H5.5L22 4.875L38.5 19.5H34.8333" stroke="#F3F3F3" stroke-width="2.75" stroke-linecap="round" stroke-linejoin="round"/>
<path d="M9.16669 19.5V30.875C9.16669 31.737 9.553 32.5636 10.2406 33.1731C10.9283 33.7826 11.8609 34.125 12.8334 34.125H31.1667C32.1391 34.125 33.0718 33.7826 33.7594 33.1731C34.447 32.5636 34.8334 31.737 34.8334 30.875V19.5" stroke="#F3F3F3" stroke-width="2.75" stroke-linecap="round" stroke-linejoin="round"/>
<path d="M17 34V24.25C17 23.388 17.3863 22.5614 18.0739 21.9519C18.7616 21.3424 19.6942 21 20.6667 21H24.3333C25.3058 21 26.2384 21.3424 26.9261 21.9519C27.6137 22.5614 28 23.388 28 24.25V34" stroke="#F3F3F3" stroke-width="2.75" stroke-linecap="round" stroke-linejoin="round"/>
</g>
<defs>
<clipPath id="clip0_3_34">
<rect width="44" height="39" fill="white"/>
</clipPath>
</defs>
</svg>
